<!DOCTYPE svg PUBLIC "-//W3C//DTD SVG 1.1//EN" "http://www.w3.org/Graphics/SVG/1.1/DTD/svg11.dtd">
<!-- Uploaded to: SVG Repo, www.svgrepo.com, Transformed by: SVG Repo Mixer Tools -->
<svg width="250px" height="250px" viewBox="-3.2 -3.2 38.40 38.40" version="1.1" xmlns="http://www.w3.org/2000/svg" xmlns:xlink="http://www.w3.org/1999/xlink" fill="#e4f316" stroke="#e4f316" stroke-width="0.00032" transform="matrix(1, 0, 0, 1, 0, 0)rotate(0)">
<g id="SVGRepo_bgCarrier" stroke-width="0"/>
<g id="SVGRepo_tracerCarrier" stroke-linecap="round" stroke-linejoin="round" stroke="#CCCCCC" stroke-width="0.064"/>
<g id="SVGRepo_iconCarrier"> <path fill="#f4d50b" d="M4.698 3.419l2.057 23.073 9.231 2.563 9.256-2.566 2.059-23.069h-22.604zM13.226 9.394l-0.409 4.441 9.671 0.001-0.069 0.76-0.665 7.45-0.042 0.478-5.804 1.609-5.796-1.609-0.396-4.443h2.84l0.202 2.257 3.154 0.85 3.156-0.852 0.328-3.67-9.671-0.001 0.069-0.76 0.665-7.45 0.209-2.086h11.287l0.131 1.598 0.403 4.453h-2.841l-0.262-2.922-2.889-0.174h-0.515v-0.004l-2.755 0.074z"/> </g>
</svg>